<?xml version="1.0" encoding="UTF-8" standalone="no"?>
<!DOCTYPE svg PUBLIC "-//W3C//DTD SVG 1.1//EN"
 "http://www.w3.org/Graphics/SVG/1.1/DTD/svg11.dtd">
<!-- Generated by graphviz version 10.0.1 (20240210.2158)
 -->
<!-- Title: G Pages: 1 -->
<svg width="744pt" height="949pt"
 viewBox="0.00 0.00 744.20 948.95" xmlns="http://www.w3.org/2000/svg" xmlns:xlink="http://www.w3.org/1999/xlink">
<g id="graph0" class="graph" transform="scale(1 1) rotate(0) translate(21.6 927.35)">
<title>G</title>
<polygon fill="#111111" stroke="none" points="-21.6,21.6 -21.6,-927.35 722.6,-927.35 722.6,21.6 -21.6,21.6"/>
<!-- src/app/(core)/features/page.tsx -->
<g id="node1" class="node">
<title>src/app/(core)/features/page.tsx</title>
<path fill="none" stroke="#cfffac" d="M252.21,-23.75C252.21,-23.75 61.54,-23.75 61.54,-23.75 57.58,-23.75 53.62,-19.79 53.62,-15.83 53.62,-15.83 53.62,-7.92 53.62,-7.92 53.62,-3.96 57.58,0 61.54,0 61.54,0 252.21,0 252.21,0 256.17,0 260.12,-3.96 260.12,-7.92 260.12,-7.92 260.12,-15.83 260.12,-15.83 260.12,-19.79 256.17,-23.75 252.21,-23.75"/>
<text text-anchor="middle" x="156.88" y="-6.45" font-family="Arial" font-size="14.00" fill="#cfffac">src/app/(core)/features/page.tsx</text>
</g>
<!-- src/app/(core)/layout.tsx -->
<g id="node2" class="node">
<title>src/app/(core)/layout.tsx</title>
<path fill="none" stroke="#cfffac" d="M228.96,-65.75C228.96,-65.75 84.79,-65.75 84.79,-65.75 80.83,-65.75 76.88,-61.79 76.88,-57.83 76.88,-57.83 76.88,-49.92 76.88,-49.92 76.88,-45.96 80.83,-42 84.79,-42 84.79,-42 228.96,-42 228.96,-42 232.92,-42 236.88,-45.96 236.88,-49.92 236.88,-49.92 236.88,-57.83 236.88,-57.83 236.88,-61.79 232.92,-65.75 228.96,-65.75"/>
<text text-anchor="middle" x="156.88" y="-48.45" font-family="Arial" font-size="14.00" fill="#cfffac">src/app/(core)/layout.tsx</text>
</g>
<!-- src/app/layout.tsx -->
<g id="node3" class="node">
<title>src/app/layout.tsx</title>
<path fill="none" stroke="#cfffac" d="M209.46,-107.75C209.46,-107.75 104.29,-107.75 104.29,-107.75 100.33,-107.75 96.38,-103.79 96.38,-99.83 96.38,-99.83 96.38,-91.92 96.38,-91.92 96.38,-87.96 100.33,-84 104.29,-84 104.29,-84 209.46,-84 209.46,-84 213.42,-84 217.38,-87.96 217.38,-91.92 217.38,-91.92 217.38,-99.83 217.38,-99.83 217.38,-103.79 213.42,-107.75 209.46,-107.75"/>
<text text-anchor="middle" x="156.88" y="-90.45" font-family="Arial" font-size="14.00" fill="#cfffac">src/app/layout.tsx</text>
</g>
<!-- src/app/manifest.ts -->
<g id="node4" class="node">
<title>src/app/manifest.ts</title>
<path fill="none" stroke="#cfffac" d="M213.96,-149.75C213.96,-149.75 99.79,-149.75 99.79,-149.75 95.83,-149.75 91.88,-145.79 91.88,-141.83 91.88,-141.83 91.88,-133.92 91.88,-133.92 91.88,-129.96 95.83,-126 99.79,-126 99.79,-126 213.96,-126 213.96,-126 217.92,-126 221.88,-129.96 221.88,-133.92 221.88,-133.92 221.88,-141.83 221.88,-141.83 221.88,-145.79 217.92,-149.75 213.96,-149.75"/>
<text text-anchor="middle" x="156.88" y="-132.45" font-family="Arial" font-size="14.00" fill="#cfffac">src/app/manifest.ts</text>
</g>
<!-- src/app/page.tsx -->
<g id="node5" class="node">
<title>src/app/page.tsx</title>
<path fill="none" stroke="#cfffac" d="M206.46,-191.75C206.46,-191.75 107.29,-191.75 107.29,-191.75 103.33,-191.75 99.38,-187.79 99.38,-183.83 99.38,-183.83 99.38,-175.92 99.38,-175.92 99.38,-171.96 103.33,-168 107.29,-168 107.29,-168 206.46,-168 206.46,-168 210.42,-168 214.38,-171.96 214.38,-175.92 214.38,-175.92 214.38,-183.83 214.38,-183.83 214.38,-187.79 210.42,-191.75 206.46,-191.75"/>
<text text-anchor="middle" x="156.88" y="-174.45" font-family="Arial" font-size="14.00" fill="#cfffac">src/app/page.tsx</text>
</g>
<!-- src/components/core/Hero/Hero.tsx -->
<g id="node6" class="node">
<title>src/components/core/Hero/Hero.tsx</title>
<path fill="none" stroke="#cfffac" d="M631.96,-233.75C631.96,-233.75 418.79,-233.75 418.79,-233.75 414.83,-233.75 410.88,-229.79 410.88,-225.83 410.88,-225.83 410.88,-217.92 410.88,-217.92 410.88,-213.96 414.83,-210 418.79,-210 418.79,-210 631.96,-210 631.96,-210 635.92,-210 639.88,-213.96 639.88,-217.92 639.88,-217.92 639.88,-225.83 639.88,-225.83 639.88,-229.79 635.92,-233.75 631.96,-233.75"/>
<text text-anchor="middle" x="525.38" y="-216.45" font-family="Arial" font-size="14.00" fill="#cfffac">src/components/core/Hero/Hero.tsx</text>
</g>
<!-- src/components/core/Hero/index.ts -->
<g id="node7" class="node">
<title>src/components/core/Hero/index.ts</title>
<path fill="none" stroke="#c6c5fe" d="M261.58,-233.75C261.58,-233.75 52.17,-233.75 52.17,-233.75 48.21,-233.75 44.25,-229.79 44.25,-225.83 44.25,-225.83 44.25,-217.92 44.25,-217.92 44.25,-213.96 48.21,-210 52.17,-210 52.17,-210 261.58,-210 261.58,-210 265.54,-210 269.5,-213.96 269.5,-217.92 269.5,-217.92 269.5,-225.83 269.5,-225.83 269.5,-229.79 265.54,-233.75 261.58,-233.75"/>
<text text-anchor="middle" x="156.88" y="-216.45" font-family="Arial" font-size="14.00" fill="#c6c5fe">src/components/core/Hero/index.ts</text>
</g>
<!-- src/components/core/Hero/index.ts&#45;&gt;src/components/core/Hero/Hero.tsx -->
<g id="edge1" class="edge">
<title>src/components/core/Hero/index.ts&#45;&gt;src/components/core/Hero/Hero.tsx</title>
<path fill="none" stroke="#757575" d="M269.83,-221.88C310.71,-221.88 357.2,-221.88 399.16,-221.88"/>
<polygon fill="#757575" stroke="#757575" points="399.06,-225.38 409.06,-221.88 399.06,-218.38 399.06,-225.38"/>
</g>
<!-- src/components/feature/ThemeSwitch/ThemeSwitch.tsx -->
<g id="node8" class="node">
<title>src/components/feature/ThemeSwitch/ThemeSwitch.tsx</title>
<path fill="none" stroke="#cfffac" d="M693.08,-275.75C693.08,-275.75 357.67,-275.75 357.67,-275.75 353.71,-275.75 349.75,-271.79 349.75,-267.83 349.75,-267.83 349.75,-259.92 349.75,-259.92 349.75,-255.96 353.71,-252 357.67,-252 357.67,-252 693.08,-252 693.08,-252 697.04,-252 701,-255.96 701,-259.92 701,-259.92 701,-267.83 701,-267.83 701,-271.79 697.04,-275.75 693.08,-275.75"/>
<text text-anchor="middle" x="525.38" y="-258.45" font-family="Arial" font-size="14.00" fill="#cfffac">src/components/feature/ThemeSwitch/ThemeSwitch.tsx</text>
</g>
<!-- src/components/feature/ThemeSwitch/index.ts -->
<g id="node9" class="node">
<title>src/components/feature/ThemeSwitch/index.ts</title>
<path fill="none" stroke="#c6c5fe" d="M296.08,-275.75C296.08,-275.75 17.67,-275.75 17.67,-275.75 13.71,-275.75 9.75,-271.79 9.75,-267.83 9.75,-267.83 9.75,-259.92 9.75,-259.92 9.75,-255.96 13.71,-252 17.67,-252 17.67,-252 296.08,-252 296.08,-252 300.04,-252 304,-255.96 304,-259.92 304,-259.92 304,-267.83 304,-267.83 304,-271.79 300.04,-275.75 296.08,-275.75"/>
<text text-anchor="middle" x="156.88" y="-258.45" font-family="Arial" font-size="14.00" fill="#c6c5fe">src/components/feature/ThemeSwitch/index.ts</text>
</g>
<!-- src/components/feature/ThemeSwitch/index.ts&#45;&gt;src/components/feature/ThemeSwitch/ThemeSwitch.tsx -->
<g id="edge2" class="edge">
<title>src/components/feature/ThemeSwitch/index.ts&#45;&gt;src/components/feature/ThemeSwitch/ThemeSwitch.tsx</title>
<path fill="none" stroke="#757575" d="M304.31,-263.88C315.45,-263.88 326.78,-263.88 338.12,-263.88"/>
<polygon fill="#757575" stroke="#757575" points="337.95,-267.38 347.95,-263.88 337.95,-260.38 337.95,-267.38"/>
</g>
<!-- src/components/layout/Analytics/Analytics.tsx -->
<g id="node10" class="node">
<title>src/components/layout/Analytics/Analytics.tsx</title>
<path fill="none" stroke="#cfffac" d="M661.58,-317.75C661.58,-317.75 389.17,-317.75 389.17,-317.75 385.21,-317.75 381.25,-313.79 381.25,-309.83 381.25,-309.83 381.25,-301.92 381.25,-301.92 381.25,-297.96 385.21,-294 389.17,-294 389.17,-294 661.58,-294 661.58,-294 665.54,-294 669.5,-297.96 669.5,-301.92 669.5,-301.92 669.5,-309.83 669.5,-309.83 669.5,-313.79 665.54,-317.75 661.58,-317.75"/>
<text text-anchor="middle" x="525.38" y="-300.45" font-family="Arial" font-size="14.00" fill="#cfffac">src/components/layout/Analytics/Analytics.tsx</text>
</g>
<!-- src/components/layout/Analytics/index.ts -->
<g id="node11" class="node">
<title>src/components/layout/Analytics/index.ts</title>
<path fill="none" stroke="#c6c5fe" d="M278.83,-317.75C278.83,-317.75 34.92,-317.75 34.92,-317.75 30.96,-317.75 27,-313.79 27,-309.83 27,-309.83 27,-301.92 27,-301.92 27,-297.96 30.96,-294 34.92,-294 34.92,-294 278.83,-294 278.83,-294 282.79,-294 286.75,-297.96 286.75,-301.92 286.75,-301.92 286.75,-309.83 286.75,-309.83 286.75,-313.79 282.79,-317.75 278.83,-317.75"/>
<text text-anchor="middle" x="156.88" y="-300.45" font-family="Arial" font-size="14.00" fill="#c6c5fe">src/components/layout/Analytics/index.ts</text>
</g>
<!-- src/components/layout/Analytics/index.ts&#45;&gt;src/components/layout/Analytics/Analytics.tsx -->
<g id="edge3" class="edge">
<title>src/components/layout/Analytics/index.ts&#45;&gt;src/components/layout/Analytics/Analytics.tsx</title>
<path fill="none" stroke="#757575" d="M287.09,-305.88C313.81,-305.88 342.21,-305.88 369.72,-305.88"/>
<polygon fill="#757575" stroke="#757575" points="369.53,-309.38 379.53,-305.88 369.53,-302.38 369.53,-309.38"/>
</g>
<!-- src/components/layout/Footer/Footer.tsx -->
<g id="node12" class="node">
<title>src/components/layout/Footer/Footer.tsx</title>
<path fill="none" stroke="#cfffac" d="M646.21,-359.75C646.21,-359.75 404.54,-359.75 404.54,-359.75 400.58,-359.75 396.62,-355.79 396.62,-351.83 396.62,-351.83 396.62,-343.92 396.62,-343.92 396.62,-339.96 400.58,-336 404.54,-336 404.54,-336 646.21,-336 646.21,-336 650.17,-336 654.12,-339.96 654.12,-343.92 654.12,-343.92 654.12,-351.83 654.12,-351.83 654.12,-355.79 650.17,-359.75 646.21,-359.75"/>
<text text-anchor="middle" x="525.38" y="-342.45" font-family="Arial" font-size="14.00" fill="#cfffac">src/components/layout/Footer/Footer.tsx</text>
</g>
<!-- src/components/layout/Footer/index.ts -->
<g id="node13" class="node">
<title>src/components/layout/Footer/index.ts</title>
<path fill="none" stroke="#c6c5fe" d="M271.33,-359.75C271.33,-359.75 42.42,-359.75 42.42,-359.75 38.46,-359.75 34.5,-355.79 34.5,-351.83 34.5,-351.83 34.5,-343.92 34.5,-343.92 34.5,-339.96 38.46,-336 42.42,-336 42.42,-336 271.33,-336 271.33,-336 275.29,-336 279.25,-339.96 279.25,-343.92 279.25,-343.92 279.25,-351.83 279.25,-351.83 279.25,-355.79 275.29,-359.75 271.33,-359.75"/>
<text text-anchor="middle" x="156.88" y="-342.45" font-family="Arial" font-size="14.00" fill="#c6c5fe">src/components/layout/Footer/index.ts</text>
</g>
<!-- src/components/layout/Footer/index.ts&#45;&gt;src/components/layout/Footer/Footer.tsx -->
<g id="edge4" class="edge">
<title>src/components/layout/Footer/index.ts&#45;&gt;src/components/layout/Footer/Footer.tsx</title>
<path fill="none" stroke="#757575" d="M279.66,-347.88C313.49,-347.88 350.49,-347.88 385.23,-347.88"/>
<polygon fill="#757575" stroke="#757575" points="384.91,-351.38 394.91,-347.88 384.91,-344.38 384.91,-351.38"/>
</g>
<!-- src/components/layout/Header/Header.tsx -->
<g id="node14" class="node">
<title>src/components/layout/Header/Header.tsx</title>
<path fill="none" stroke="#cfffac" d="M651.46,-401.75C651.46,-401.75 399.29,-401.75 399.29,-401.75 395.33,-401.75 391.38,-397.79 391.38,-393.83 391.38,-393.83 391.38,-385.92 391.38,-385.92 391.38,-381.96 395.33,-378 399.29,-378 399.29,-378 651.46,-378 651.46,-378 655.42,-378 659.38,-381.96 659.38,-385.92 659.38,-385.92 659.38,-393.83 659.38,-393.83 659.38,-397.79 655.42,-401.75 651.46,-401.75"/>
<text text-anchor="middle" x="525.38" y="-384.45" font-family="Arial" font-size="14.00" fill="#cfffac">src/components/layout/Header/Header.tsx</text>
</g>
<!-- src/components/layout/Header/index.ts -->
<g id="node15" class="node">
<title>src/components/layout/Header/index.ts</title>
<path fill="none" stroke="#c6c5fe" d="M273.96,-401.75C273.96,-401.75 39.79,-401.75 39.79,-401.75 35.83,-401.75 31.88,-397.79 31.88,-393.83 31.88,-393.83 31.88,-385.92 31.88,-385.92 31.88,-381.96 35.83,-378 39.79,-378 39.79,-378 273.96,-378 273.96,-378 277.92,-378 281.88,-381.96 281.88,-385.92 281.88,-385.92 281.88,-393.83 281.88,-393.83 281.88,-397.79 277.92,-401.75 273.96,-401.75"/>
<text text-anchor="middle" x="156.88" y="-384.45" font-family="Arial" font-size="14.00" fill="#c6c5fe">src/components/layout/Header/index.ts</text>
</g>
<!-- src/components/layout/Header/index.ts&#45;&gt;src/components/layout/Header/Header.tsx -->
<g id="edge5" class="edge">
<title>src/components/layout/Header/index.ts&#45;&gt;src/components/layout/Header/Header.tsx</title>
<path fill="none" stroke="#757575" d="M282.21,-389.88C313.59,-389.88 347.56,-389.88 379.84,-389.88"/>
<polygon fill="#757575" stroke="#757575" points="379.67,-393.38 389.67,-389.88 379.67,-386.38 379.67,-393.38"/>
</g>
<!-- src/components/layout/Main/Main.tsx -->
<g id="node16" class="node">
<title>src/components/layout/Main/Main.tsx</title>
<path fill="none" stroke="#cfffac" d="M637.58,-443.75C637.58,-443.75 413.17,-443.75 413.17,-443.75 409.21,-443.75 405.25,-439.79 405.25,-435.83 405.25,-435.83 405.25,-427.92 405.25,-427.92 405.25,-423.96 409.21,-420 413.17,-420 413.17,-420 637.58,-420 637.58,-420 641.54,-420 645.5,-423.96 645.5,-427.92 645.5,-427.92 645.5,-435.83 645.5,-435.83 645.5,-439.79 641.54,-443.75 637.58,-443.75"/>
<text text-anchor="middle" x="525.38" y="-426.45" font-family="Arial" font-size="14.00" fill="#cfffac">src/components/layout/Main/Main.tsx</text>
</g>
<!-- src/components/layout/Main/index.ts -->
<g id="node17" class="node">
<title>src/components/layout/Main/index.ts</title>
<path fill="none" stroke="#c6c5fe" d="M266.83,-443.75C266.83,-443.75 46.92,-443.75 46.92,-443.75 42.96,-443.75 39,-439.79 39,-435.83 39,-435.83 39,-427.92 39,-427.92 39,-423.96 42.96,-420 46.92,-420 46.92,-420 266.83,-420 266.83,-420 270.79,-420 274.75,-423.96 274.75,-427.92 274.75,-427.92 274.75,-435.83 274.75,-435.83 274.75,-439.79 270.79,-443.75 266.83,-443.75"/>
<text text-anchor="middle" x="156.88" y="-426.45" font-family="Arial" font-size="14.00" fill="#c6c5fe">src/components/layout/Main/index.ts</text>
</g>
<!-- src/components/layout/Main/index.ts&#45;&gt;src/components/layout/Main/Main.tsx -->
<g id="edge6" class="edge">
<title>src/components/layout/Main/index.ts&#45;&gt;src/components/layout/Main/Main.tsx</title>
<path fill="none" stroke="#757575" d="M275.1,-431.88C312.84,-431.88 354.9,-431.88 393.55,-431.88"/>
<polygon fill="#757575" stroke="#757575" points="393.38,-435.38 403.38,-431.88 393.38,-428.38 393.38,-435.38"/>
</g>
<!-- src/components/layout/Providers/Providers.tsx -->
<g id="node18" class="node">
<title>src/components/layout/Providers/Providers.tsx</title>
<path fill="none" stroke="#cfffac" d="M664.58,-485.75C664.58,-485.75 386.17,-485.75 386.17,-485.75 382.21,-485.75 378.25,-481.79 378.25,-477.83 378.25,-477.83 378.25,-469.92 378.25,-469.92 378.25,-465.96 382.21,-462 386.17,-462 386.17,-462 664.58,-462 664.58,-462 668.54,-462 672.5,-465.96 672.5,-469.92 672.5,-469.92 672.5,-477.83 672.5,-477.83 672.5,-481.79 668.54,-485.75 664.58,-485.75"/>
<text text-anchor="middle" x="525.38" y="-468.45" font-family="Arial" font-size="14.00" fill="#cfffac">src/components/layout/Providers/Providers.tsx</text>
</g>
<!-- src/components/layout/Providers/index.ts -->
<g id="node19" class="node">
<title>src/components/layout/Providers/index.ts</title>
<path fill="none" stroke="#c6c5fe" d="M280.33,-485.75C280.33,-485.75 33.42,-485.75 33.42,-485.75 29.46,-485.75 25.5,-481.79 25.5,-477.83 25.5,-477.83 25.5,-469.92 25.5,-469.92 25.5,-465.96 29.46,-462 33.42,-462 33.42,-462 280.33,-462 280.33,-462 284.29,-462 288.25,-465.96 288.25,-469.92 288.25,-469.92 288.25,-477.83 288.25,-477.83 288.25,-481.79 284.29,-485.75 280.33,-485.75"/>
<text text-anchor="middle" x="156.88" y="-468.45" font-family="Arial" font-size="14.00" fill="#c6c5fe">src/components/layout/Providers/index.ts</text>
</g>
<!-- src/components/layout/Providers/index.ts&#45;&gt;src/components/layout/Providers/Providers.tsx -->
<g id="edge7" class="edge">
<title>src/components/layout/Providers/index.ts&#45;&gt;src/components/layout/Providers/Providers.tsx</title>
<path fill="none" stroke="#757575" d="M288.64,-473.88C313.8,-473.88 340.4,-473.88 366.32,-473.88"/>
<polygon fill="#757575" stroke="#757575" points="366.26,-477.38 376.26,-473.88 366.26,-470.38 366.26,-477.38"/>
</g>
<!-- src/components/layout/Section/Section.stories.tsx -->
<g id="node20" class="node">
<title>src/components/layout/Section/Section.stories.tsx</title>
<path fill="none" stroke="#c6c5fe" d="M305.83,-569.75C305.83,-569.75 7.92,-569.75 7.92,-569.75 3.96,-569.75 0,-565.79 0,-561.83 0,-561.83 0,-553.92 0,-553.92 0,-549.96 3.96,-546 7.92,-546 7.92,-546 305.83,-546 305.83,-546 309.79,-546 313.75,-549.96 313.75,-553.92 313.75,-553.92 313.75,-561.83 313.75,-561.83 313.75,-565.79 309.79,-569.75 305.83,-569.75"/>
<text text-anchor="middle" x="156.88" y="-552.45" font-family="Arial" font-size="14.00" fill="#c6c5fe">src/components/layout/Section/Section.stories.tsx</text>
</g>
<!-- src/components/layout/Section/Section.tsx -->
<g id="node21" class="node">
<title>src/components/layout/Section/Section.tsx</title>
<path fill="none" stroke="#cfffac" d="M652.58,-548.75C652.58,-548.75 398.17,-548.75 398.17,-548.75 394.21,-548.75 390.25,-544.79 390.25,-540.83 390.25,-540.83 390.25,-532.92 390.25,-532.92 390.25,-528.96 394.21,-525 398.17,-525 398.17,-525 652.58,-525 652.58,-525 656.54,-525 660.5,-528.96 660.5,-532.92 660.5,-532.92 660.5,-540.83 660.5,-540.83 660.5,-544.79 656.54,-548.75 652.58,-548.75"/>
<text text-anchor="middle" x="525.38" y="-531.45" font-family="Arial" font-size="14.00" fill="#cfffac">src/components/layout/Section/Section.tsx</text>
</g>
<!-- src/components/layout/Section/Section.stories.tsx&#45;&gt;src/components/layout/Section/Section.tsx -->
<g id="edge8" class="edge">
<title>src/components/layout/Section/Section.stories.tsx&#45;&gt;src/components/layout/Section/Section.tsx</title>
<path fill="none" stroke="#757575" d="M314.1,-548.92C335.47,-547.7 357.35,-546.45 378.52,-545.23"/>
<polygon fill="#757575" stroke="#757575" points="378.57,-548.74 388.36,-544.67 378.17,-541.75 378.57,-548.74"/>
</g>
<!-- src/components/layout/Section/index.ts -->
<g id="node22" class="node">
<title>src/components/layout/Section/index.ts</title>
<path fill="none" stroke="#c6c5fe" d="M274.33,-527.75C274.33,-527.75 39.42,-527.75 39.42,-527.75 35.46,-527.75 31.5,-523.79 31.5,-519.83 31.5,-519.83 31.5,-511.92 31.5,-511.92 31.5,-507.96 35.46,-504 39.42,-504 39.42,-504 274.33,-504 274.33,-504 278.29,-504 282.25,-507.96 282.25,-511.92 282.25,-511.92 282.25,-519.83 282.25,-519.83 282.25,-523.79 278.29,-527.75 274.33,-527.75"/>
<text text-anchor="middle" x="156.88" y="-510.45" font-family="Arial" font-size="14.00" fill="#c6c5fe">src/components/layout/Section/index.ts</text>
</g>
<!-- src/components/layout/Section/index.ts&#45;&gt;src/components/layout/Section/Section.tsx -->
<g id="edge9" class="edge">
<title>src/components/layout/Section/index.ts&#45;&gt;src/components/layout/Section/Section.tsx</title>
<path fill="none" stroke="#757575" d="M282.72,-523.03C313.62,-524.8 346.99,-526.71 378.78,-528.53"/>
<polygon fill="#757575" stroke="#757575" points="378.26,-532.01 388.44,-529.09 378.66,-525.02 378.26,-532.01"/>
</g>
<!-- src/components/ui/Button/Button.spec.tsx -->
<g id="node23" class="node">
<title>src/components/ui/Button/Button.spec.tsx</title>
<path fill="none" stroke="#c6c5fe" d="M281.46,-695.75C281.46,-695.75 32.29,-695.75 32.29,-695.75 28.33,-695.75 24.38,-691.79 24.38,-687.83 24.38,-687.83 24.38,-679.92 24.38,-679.92 24.38,-675.96 28.33,-672 32.29,-672 32.29,-672 281.46,-672 281.46,-672 285.42,-672 289.38,-675.96 289.38,-679.92 289.38,-679.92 289.38,-687.83 289.38,-687.83 289.38,-691.79 285.42,-695.75 281.46,-695.75"/>
<text text-anchor="middle" x="156.88" y="-678.45" font-family="Arial" font-size="14.00" fill="#c6c5fe">src/components/ui/Button/Button.spec.tsx</text>
</g>
<!-- src/components/ui/Button/Button.tsx -->
<g id="node24" class="node">
<title>src/components/ui/Button/Button.tsx</title>
<path fill="none" stroke="#cfffac" d="M633.83,-653.75C633.83,-653.75 416.92,-653.75 416.92,-653.75 412.96,-653.75 409,-649.79 409,-645.83 409,-645.83 409,-637.92 409,-637.92 409,-633.96 412.96,-630 416.92,-630 416.92,-630 633.83,-630 633.83,-630 637.79,-630 641.75,-633.96 641.75,-637.92 641.75,-637.92 641.75,-645.83 641.75,-645.83 641.75,-649.79 637.79,-653.75 633.83,-653.75"/>
<text text-anchor="middle" x="525.38" y="-636.45" font-family="Arial" font-size="14.00" fill="#cfffac">src/components/ui/Button/Button.tsx</text>
</g>
<!-- src/components/ui/Button/Button.spec.tsx&#45;&gt;src/components/ui/Button/Button.tsx -->
<g id="edge10" class="edge">
<title>src/components/ui/Button/Button.spec.tsx&#45;&gt;src/components/ui/Button/Button.tsx</title>
<path fill="none" stroke="#757575" d="M265.85,-671.5C309.65,-666.48 360.39,-660.67 405.26,-655.53"/>
<polygon fill="#757575" stroke="#757575" points="405.49,-659.02 415.03,-654.41 404.7,-652.07 405.49,-659.02"/>
</g>
<!-- src/components/ui/Button/Button.stories.tsx -->
<g id="node25" class="node">
<title>src/components/ui/Button/Button.stories.tsx</title>
<path fill="none" stroke="#c6c5fe" d="M287.08,-653.75C287.08,-653.75 26.67,-653.75 26.67,-653.75 22.71,-653.75 18.75,-649.79 18.75,-645.83 18.75,-645.83 18.75,-637.92 18.75,-637.92 18.75,-633.96 22.71,-630 26.67,-630 26.67,-630 287.08,-630 287.08,-630 291.04,-630 295,-633.96 295,-637.92 295,-637.92 295,-645.83 295,-645.83 295,-649.79 291.04,-653.75 287.08,-653.75"/>
<text text-anchor="middle" x="156.88" y="-636.45" font-family="Arial" font-size="14.00" fill="#c6c5fe">src/components/ui/Button/Button.stories.tsx</text>
</g>
<!-- src/components/ui/Button/Button.stories.tsx&#45;&gt;src/components/ui/Button/Button.tsx -->
<g id="edge11" class="edge">
<title>src/components/ui/Button/Button.stories.tsx&#45;&gt;src/components/ui/Button/Button.tsx</title>
<path fill="none" stroke="#757575" d="M295.39,-641.88C328.73,-641.88 364.23,-641.88 397.07,-641.88"/>
<polygon fill="#757575" stroke="#757575" points="397.06,-645.38 407.06,-641.88 397.06,-638.38 397.06,-645.38"/>
</g>
<!-- src/components/ui/Button/index.ts -->
<g id="node26" class="node">
<title>src/components/ui/Button/index.ts</title>
<path fill="none" stroke="#c6c5fe" d="M258.58,-611.75C258.58,-611.75 55.17,-611.75 55.17,-611.75 51.21,-611.75 47.25,-607.79 47.25,-603.83 47.25,-603.83 47.25,-595.92 47.25,-595.92 47.25,-591.96 51.21,-588 55.17,-588 55.17,-588 258.58,-588 258.58,-588 262.54,-588 266.5,-591.96 266.5,-595.92 266.5,-595.92 266.5,-603.83 266.5,-603.83 266.5,-607.79 262.54,-611.75 258.58,-611.75"/>
<text text-anchor="middle" x="156.88" y="-594.45" font-family="Arial" font-size="14.00" fill="#c6c5fe">src/components/ui/Button/index.ts</text>
</g>
<!-- src/components/ui/Button/index.ts&#45;&gt;src/components/ui/Button/Button.tsx -->
<g id="edge12" class="edge">
<title>src/components/ui/Button/index.ts&#45;&gt;src/components/ui/Button/Button.tsx</title>
<path fill="none" stroke="#757575" d="M265.85,-612.25C309.65,-617.27 360.39,-623.08 405.26,-628.22"/>
<polygon fill="#757575" stroke="#757575" points="404.7,-631.68 415.03,-629.34 405.49,-624.73 404.7,-631.68"/>
</g>
<!-- src/components/ui/Image/Image.tsx -->
<g id="node27" class="node">
<title>src/components/ui/Image/Image.tsx</title>
<path fill="none" stroke="#cfffac" d="M633.08,-737.75C633.08,-737.75 417.67,-737.75 417.67,-737.75 413.71,-737.75 409.75,-733.79 409.75,-729.83 409.75,-729.83 409.75,-721.92 409.75,-721.92 409.75,-717.96 413.71,-714 417.67,-714 417.67,-714 633.08,-714 633.08,-714 637.04,-714 641,-717.96 641,-721.92 641,-721.92 641,-729.83 641,-729.83 641,-733.79 637.04,-737.75 633.08,-737.75"/>
<text text-anchor="middle" x="525.38" y="-720.45" font-family="Arial" font-size="14.00" fill="#cfffac">src/components/ui/Image/Image.tsx</text>
</g>
<!-- src/components/ui/Image/index.ts -->
<g id="node28" class="node">
<title>src/components/ui/Image/index.ts</title>
<path fill="none" stroke="#c6c5fe" d="M258.21,-737.75C258.21,-737.75 55.54,-737.75 55.54,-737.75 51.58,-737.75 47.62,-733.79 47.62,-729.83 47.62,-729.83 47.62,-721.92 47.62,-721.92 47.62,-717.96 51.58,-714 55.54,-714 55.54,-714 258.21,-714 258.21,-714 262.17,-714 266.12,-717.96 266.12,-721.92 266.12,-721.92 266.12,-729.83 266.12,-729.83 266.12,-733.79 262.17,-737.75 258.21,-737.75"/>
<text text-anchor="middle" x="156.88" y="-720.45" font-family="Arial" font-size="14.00" fill="#c6c5fe">src/components/ui/Image/index.ts</text>
</g>
<!-- src/components/ui/Image/index.ts&#45;&gt;src/components/ui/Image/Image.tsx -->
<g id="edge13" class="edge">
<title>src/components/ui/Image/index.ts&#45;&gt;src/components/ui/Image/Image.tsx</title>
<path fill="none" stroke="#757575" d="M266.35,-725.88C307.72,-725.88 355.22,-725.88 398.11,-725.88"/>
<polygon fill="#757575" stroke="#757575" points="397.97,-729.38 407.97,-725.88 397.97,-722.38 397.97,-729.38"/>
</g>
<!-- src/components/ui/Link/Link.tsx -->
<g id="node29" class="node">
<title>src/components/ui/Link/Link.tsx</title>
<path fill="none" stroke="#cfffac" d="M619.58,-779.75C619.58,-779.75 431.17,-779.75 431.17,-779.75 427.21,-779.75 423.25,-775.79 423.25,-771.83 423.25,-771.83 423.25,-763.92 423.25,-763.92 423.25,-759.96 427.21,-756 431.17,-756 431.17,-756 619.58,-756 619.58,-756 623.54,-756 627.5,-759.96 627.5,-763.92 627.5,-763.92 627.5,-771.83 627.5,-771.83 627.5,-775.79 623.54,-779.75 619.58,-779.75"/>
<text text-anchor="middle" x="525.38" y="-762.45" font-family="Arial" font-size="14.00" fill="#cfffac">src/components/ui/Link/Link.tsx</text>
</g>
<!-- src/components/ui/Link/index.ts -->
<g id="node30" class="node">
<title>src/components/ui/Link/index.ts</title>
<path fill="none" stroke="#c6c5fe" d="M251.46,-779.75C251.46,-779.75 62.29,-779.75 62.29,-779.75 58.33,-779.75 54.38,-775.79 54.38,-771.83 54.38,-771.83 54.38,-763.92 54.38,-763.92 54.38,-759.96 58.33,-756 62.29,-756 62.29,-756 251.46,-756 251.46,-756 255.42,-756 259.38,-759.96 259.38,-763.92 259.38,-763.92 259.38,-771.83 259.38,-771.83 259.38,-775.79 255.42,-779.75 251.46,-779.75"/>
<text text-anchor="middle" x="156.88" y="-762.45" font-family="Arial" font-size="14.00" fill="#c6c5fe">src/components/ui/Link/index.ts</text>
</g>
<!-- src/components/ui/Link/index.ts&#45;&gt;src/components/ui/Link/Link.tsx -->
<g id="edge14" class="edge">
<title>src/components/ui/Link/index.ts&#45;&gt;src/components/ui/Link/Link.tsx</title>
<path fill="none" stroke="#757575" d="M259.48,-767.88C306.65,-767.88 362.88,-767.88 411.38,-767.88"/>
<polygon fill="#757575" stroke="#757575" points="411.38,-771.38 421.38,-767.88 411.38,-764.38 411.38,-771.38"/>
</g>
<!-- src/hooks/use&#45;debounce.ts -->
<g id="node31" class="node">
<title>src/hooks/use&#45;debounce.ts</title>
<path fill="none" stroke="#cfffac" d="M237.58,-821.75C237.58,-821.75 76.17,-821.75 76.17,-821.75 72.21,-821.75 68.25,-817.79 68.25,-813.83 68.25,-813.83 68.25,-805.92 68.25,-805.92 68.25,-801.96 72.21,-798 76.17,-798 76.17,-798 237.58,-798 237.58,-798 241.54,-798 245.5,-801.96 245.5,-805.92 245.5,-805.92 245.5,-813.83 245.5,-813.83 245.5,-817.79 241.54,-821.75 237.58,-821.75"/>
<text text-anchor="middle" x="156.88" y="-804.45" font-family="Arial" font-size="14.00" fill="#cfffac">src/hooks/use&#45;debounce.ts</text>
</g>
<!-- src/utils/helper.utils.ts -->
<g id="node32" class="node">
<title>src/utils/helper.utils.ts</title>
<path fill="none" stroke="#cfffac" d="M221.08,-863.75C221.08,-863.75 92.67,-863.75 92.67,-863.75 88.71,-863.75 84.75,-859.79 84.75,-855.83 84.75,-855.83 84.75,-847.92 84.75,-847.92 84.75,-843.96 88.71,-840 92.67,-840 92.67,-840 221.08,-840 221.08,-840 225.04,-840 229,-843.96 229,-847.92 229,-847.92 229,-855.83 229,-855.83 229,-859.79 225.04,-863.75 221.08,-863.75"/>
<text text-anchor="middle" x="156.88" y="-846.45" font-family="Arial" font-size="14.00" fill="#cfffac">src/utils/helper.utils.ts</text>
</g>
<!-- src/utils/theme.utils.ts -->
<g id="node33" class="node">
<title>src/utils/theme.utils.ts</title>
<path fill="none" stroke="#cfffac" d="M221.83,-905.75C221.83,-905.75 91.92,-905.75 91.92,-905.75 87.96,-905.75 84,-901.79 84,-897.83 84,-897.83 84,-889.92 84,-889.92 84,-885.96 87.96,-882 91.92,-882 91.92,-882 221.83,-882 221.83,-882 225.79,-882 229.75,-885.96 229.75,-889.92 229.75,-889.92 229.75,-897.83 229.75,-897.83 229.75,-901.79 225.79,-905.75 221.83,-905.75"/>
<text text-anchor="middle" x="156.88" y="-888.45" font-family="Arial" font-size="14.00" fill="#cfffac">src/utils/theme.utils.ts</text>
</g>
</g>
</svg>
