<?xml version="1.0" encoding="UTF-8" standalone="no"?>
<!DOCTYPE svg PUBLIC "-//W3C//DTD SVG 1.1//EN"
 "http://www.w3.org/Graphics/SVG/1.1/DTD/svg11.dtd">
<!-- Generated by graphviz version 10.0.1 (20240210.2158)
 -->
<!-- Title: G Pages: 1 -->
<svg width="926pt" height="1075pt"
 viewBox="0.00 0.00 925.95 1074.95" xmlns="http://www.w3.org/2000/svg" xmlns:xlink="http://www.w3.org/1999/xlink">
<g id="graph0" class="graph" transform="scale(1 1) rotate(0) translate(21.6 1053.35)">
<title>G</title>
<polygon fill="#111111" stroke="none" points="-21.6,21.6 -21.6,-1053.35 904.35,-1053.35 904.35,21.6 -21.6,21.6"/>
<!-- src/app/(core)/features/page.tsx -->
<g id="node1" class="node">
<title>src/app/(core)/features/page.tsx</title>
<path fill="none" stroke="#cfffac" d="M252.21,-23.75C252.21,-23.75 61.54,-23.75 61.54,-23.75 57.58,-23.75 53.62,-19.79 53.62,-15.83 53.62,-15.83 53.62,-7.92 53.62,-7.92 53.62,-3.96 57.58,0 61.54,0 61.54,0 252.21,0 252.21,0 256.17,0 260.12,-3.96 260.12,-7.92 260.12,-7.92 260.12,-15.83 260.12,-15.83 260.12,-19.79 256.17,-23.75 252.21,-23.75"/>
<text text-anchor="middle" x="156.88" y="-6.45" font-family="Arial" font-size="14.00" fill="#cfffac">src/app/(core)/features/page.tsx</text>
</g>
<!-- src/app/(core)/layout.tsx -->
<g id="node2" class="node">
<title>src/app/(core)/layout.tsx</title>
<path fill="none" stroke="#cfffac" d="M228.96,-65.75C228.96,-65.75 84.79,-65.75 84.79,-65.75 80.83,-65.75 76.88,-61.79 76.88,-57.83 76.88,-57.83 76.88,-49.92 76.88,-49.92 76.88,-45.96 80.83,-42 84.79,-42 84.79,-42 228.96,-42 228.96,-42 232.92,-42 236.88,-45.96 236.88,-49.92 236.88,-49.92 236.88,-57.83 236.88,-57.83 236.88,-61.79 232.92,-65.75 228.96,-65.75"/>
<text text-anchor="middle" x="156.88" y="-48.45" font-family="Arial" font-size="14.00" fill="#cfffac">src/app/(core)/layout.tsx</text>
</g>
<!-- src/app/layout.tsx -->
<g id="node3" class="node">
<title>src/app/layout.tsx</title>
<path fill="none" stroke="#c6c5fe" d="M209.46,-107.75C209.46,-107.75 104.29,-107.75 104.29,-107.75 100.33,-107.75 96.38,-103.79 96.38,-99.83 96.38,-99.83 96.38,-91.92 96.38,-91.92 96.38,-87.96 100.33,-84 104.29,-84 104.29,-84 209.46,-84 209.46,-84 213.42,-84 217.38,-87.96 217.38,-91.92 217.38,-91.92 217.38,-99.83 217.38,-99.83 217.38,-103.79 213.42,-107.75 209.46,-107.75"/>
<text text-anchor="middle" x="156.88" y="-90.45" font-family="Arial" font-size="14.00" fill="#c6c5fe">src/app/layout.tsx</text>
</g>
<!-- src/app/providers.tsx -->
<g id="node4" class="node">
<title>src/app/providers.tsx</title>
<path fill="none" stroke="#cfffac" d="M587.71,-107.75C587.71,-107.75 463.04,-107.75 463.04,-107.75 459.08,-107.75 455.12,-103.79 455.12,-99.83 455.12,-99.83 455.12,-91.92 455.12,-91.92 455.12,-87.96 459.08,-84 463.04,-84 463.04,-84 587.71,-84 587.71,-84 591.67,-84 595.62,-87.96 595.62,-91.92 595.62,-91.92 595.62,-99.83 595.62,-99.83 595.62,-103.79 591.67,-107.75 587.71,-107.75"/>
<text text-anchor="middle" x="525.38" y="-90.45" font-family="Arial" font-size="14.00" fill="#cfffac">src/app/providers.tsx</text>
</g>
<!-- src/app/layout.tsx&#45;&gt;src/app/providers.tsx -->
<g id="edge1" class="edge">
<title>src/app/layout.tsx&#45;&gt;src/app/providers.tsx</title>
<path fill="none" stroke="#757575" d="M217.58,-95.88C279.06,-95.88 375.28,-95.88 443.55,-95.88"/>
<polygon fill="#757575" stroke="#757575" points="443.17,-99.38 453.17,-95.88 443.17,-92.38 443.17,-99.38"/>
</g>
<!-- src/app/manifest.ts -->
<g id="node5" class="node">
<title>src/app/manifest.ts</title>
<path fill="none" stroke="#cfffac" d="M213.96,-149.75C213.96,-149.75 99.79,-149.75 99.79,-149.75 95.83,-149.75 91.88,-145.79 91.88,-141.83 91.88,-141.83 91.88,-133.92 91.88,-133.92 91.88,-129.96 95.83,-126 99.79,-126 99.79,-126 213.96,-126 213.96,-126 217.92,-126 221.88,-129.96 221.88,-133.92 221.88,-133.92 221.88,-141.83 221.88,-141.83 221.88,-145.79 217.92,-149.75 213.96,-149.75"/>
<text text-anchor="middle" x="156.88" y="-132.45" font-family="Arial" font-size="14.00" fill="#cfffac">src/app/manifest.ts</text>
</g>
<!-- src/app/page.tsx -->
<g id="node6" class="node">
<title>src/app/page.tsx</title>
<path fill="none" stroke="#cfffac" d="M206.46,-191.75C206.46,-191.75 107.29,-191.75 107.29,-191.75 103.33,-191.75 99.38,-187.79 99.38,-183.83 99.38,-183.83 99.38,-175.92 99.38,-175.92 99.38,-171.96 103.33,-168 107.29,-168 107.29,-168 206.46,-168 206.46,-168 210.42,-168 214.38,-171.96 214.38,-175.92 214.38,-175.92 214.38,-183.83 214.38,-183.83 214.38,-187.79 210.42,-191.75 206.46,-191.75"/>
<text text-anchor="middle" x="156.88" y="-174.45" font-family="Arial" font-size="14.00" fill="#cfffac">src/app/page.tsx</text>
</g>
<!-- src/app/robots.ts -->
<g id="node7" class="node">
<title>src/app/robots.ts</title>
<path fill="none" stroke="#cfffac" d="M206.83,-233.75C206.83,-233.75 106.92,-233.75 106.92,-233.75 102.96,-233.75 99,-229.79 99,-225.83 99,-225.83 99,-217.92 99,-217.92 99,-213.96 102.96,-210 106.92,-210 106.92,-210 206.83,-210 206.83,-210 210.79,-210 214.75,-213.96 214.75,-217.92 214.75,-217.92 214.75,-225.83 214.75,-225.83 214.75,-229.79 210.79,-233.75 206.83,-233.75"/>
<text text-anchor="middle" x="156.88" y="-216.45" font-family="Arial" font-size="14.00" fill="#cfffac">src/app/robots.ts</text>
</g>
<!-- src/app/sitemap.ts -->
<g id="node8" class="node">
<title>src/app/sitemap.ts</title>
<path fill="none" stroke="#cfffac" d="M212.08,-275.75C212.08,-275.75 101.67,-275.75 101.67,-275.75 97.71,-275.75 93.75,-271.79 93.75,-267.83 93.75,-267.83 93.75,-259.92 93.75,-259.92 93.75,-255.96 97.71,-252 101.67,-252 101.67,-252 212.08,-252 212.08,-252 216.04,-252 220,-255.96 220,-259.92 220,-259.92 220,-267.83 220,-267.83 220,-271.79 216.04,-275.75 212.08,-275.75"/>
<text text-anchor="middle" x="156.88" y="-258.45" font-family="Arial" font-size="14.00" fill="#cfffac">src/app/sitemap.ts</text>
</g>
<!-- src/components/core/Hero/Hero.tsx -->
<g id="node9" class="node">
<title>src/components/core/Hero/Hero.tsx</title>
<path fill="none" stroke="#cfffac" d="M631.96,-317.75C631.96,-317.75 418.79,-317.75 418.79,-317.75 414.83,-317.75 410.88,-313.79 410.88,-309.83 410.88,-309.83 410.88,-301.92 410.88,-301.92 410.88,-297.96 414.83,-294 418.79,-294 418.79,-294 631.96,-294 631.96,-294 635.92,-294 639.88,-297.96 639.88,-301.92 639.88,-301.92 639.88,-309.83 639.88,-309.83 639.88,-313.79 635.92,-317.75 631.96,-317.75"/>
<text text-anchor="middle" x="525.38" y="-300.45" font-family="Arial" font-size="14.00" fill="#cfffac">src/components/core/Hero/Hero.tsx</text>
</g>
<!-- src/components/core/Hero/index.ts -->
<g id="node10" class="node">
<title>src/components/core/Hero/index.ts</title>
<path fill="none" stroke="#c6c5fe" d="M261.58,-317.75C261.58,-317.75 52.17,-317.75 52.17,-317.75 48.21,-317.75 44.25,-313.79 44.25,-309.83 44.25,-309.83 44.25,-301.92 44.25,-301.92 44.25,-297.96 48.21,-294 52.17,-294 52.17,-294 261.58,-294 261.58,-294 265.54,-294 269.5,-297.96 269.5,-301.92 269.5,-301.92 269.5,-309.83 269.5,-309.83 269.5,-313.79 265.54,-317.75 261.58,-317.75"/>
<text text-anchor="middle" x="156.88" y="-300.45" font-family="Arial" font-size="14.00" fill="#c6c5fe">src/components/core/Hero/index.ts</text>
</g>
<!-- src/components/core/Hero/index.ts&#45;&gt;src/components/core/Hero/Hero.tsx -->
<g id="edge2" class="edge">
<title>src/components/core/Hero/index.ts&#45;&gt;src/components/core/Hero/Hero.tsx</title>
<path fill="none" stroke="#757575" d="M269.83,-305.88C310.71,-305.88 357.2,-305.88 399.16,-305.88"/>
<polygon fill="#757575" stroke="#757575" points="399.06,-309.38 409.06,-305.88 399.06,-302.38 399.06,-309.38"/>
</g>
<!-- src/components/feature/ThemeSwitch/ThemeSwitch.tsx -->
<g id="node11" class="node">
<title>src/components/feature/ThemeSwitch/ThemeSwitch.tsx</title>
<path fill="none" stroke="#cfffac" d="M693.08,-359.75C693.08,-359.75 357.67,-359.75 357.67,-359.75 353.71,-359.75 349.75,-355.79 349.75,-351.83 349.75,-351.83 349.75,-343.92 349.75,-343.92 349.75,-339.96 353.71,-336 357.67,-336 357.67,-336 693.08,-336 693.08,-336 697.04,-336 701,-339.96 701,-343.92 701,-343.92 701,-351.83 701,-351.83 701,-355.79 697.04,-359.75 693.08,-359.75"/>
<text text-anchor="middle" x="525.38" y="-342.45" font-family="Arial" font-size="14.00" fill="#cfffac">src/components/feature/ThemeSwitch/ThemeSwitch.tsx</text>
</g>
<!-- src/components/feature/ThemeSwitch/index.ts -->
<g id="node12" class="node">
<title>src/components/feature/ThemeSwitch/index.ts</title>
<path fill="none" stroke="#c6c5fe" d="M296.08,-359.75C296.08,-359.75 17.67,-359.75 17.67,-359.75 13.71,-359.75 9.75,-355.79 9.75,-351.83 9.75,-351.83 9.75,-343.92 9.75,-343.92 9.75,-339.96 13.71,-336 17.67,-336 17.67,-336 296.08,-336 296.08,-336 300.04,-336 304,-339.96 304,-343.92 304,-343.92 304,-351.83 304,-351.83 304,-355.79 300.04,-359.75 296.08,-359.75"/>
<text text-anchor="middle" x="156.88" y="-342.45" font-family="Arial" font-size="14.00" fill="#c6c5fe">src/components/feature/ThemeSwitch/index.ts</text>
</g>
<!-- src/components/feature/ThemeSwitch/index.ts&#45;&gt;src/components/feature/ThemeSwitch/ThemeSwitch.tsx -->
<g id="edge3" class="edge">
<title>src/components/feature/ThemeSwitch/index.ts&#45;&gt;src/components/feature/ThemeSwitch/ThemeSwitch.tsx</title>
<path fill="none" stroke="#757575" d="M304.31,-347.88C315.45,-347.88 326.78,-347.88 338.12,-347.88"/>
<polygon fill="#757575" stroke="#757575" points="337.95,-351.38 347.95,-347.88 337.95,-344.38 337.95,-351.38"/>
</g>
<!-- src/components/index.ts -->
<g id="node13" class="node">
<title>src/components/index.ts</title>
<path fill="none" stroke="#cfffac" d="M230.08,-401.75C230.08,-401.75 83.67,-401.75 83.67,-401.75 79.71,-401.75 75.75,-397.79 75.75,-393.83 75.75,-393.83 75.75,-385.92 75.75,-385.92 75.75,-381.96 79.71,-378 83.67,-378 83.67,-378 230.08,-378 230.08,-378 234.04,-378 238,-381.96 238,-385.92 238,-385.92 238,-393.83 238,-393.83 238,-397.79 234.04,-401.75 230.08,-401.75"/>
<text text-anchor="middle" x="156.88" y="-384.45" font-family="Arial" font-size="14.00" fill="#cfffac">src/components/index.ts</text>
</g>
<!-- src/components/layout/Footer/Footer.tsx -->
<g id="node14" class="node">
<title>src/components/layout/Footer/Footer.tsx</title>
<path fill="none" stroke="#cfffac" d="M646.21,-443.75C646.21,-443.75 404.54,-443.75 404.54,-443.75 400.58,-443.75 396.62,-439.79 396.62,-435.83 396.62,-435.83 396.62,-427.92 396.62,-427.92 396.62,-423.96 400.58,-420 404.54,-420 404.54,-420 646.21,-420 646.21,-420 650.17,-420 654.12,-423.96 654.12,-427.92 654.12,-427.92 654.12,-435.83 654.12,-435.83 654.12,-439.79 650.17,-443.75 646.21,-443.75"/>
<text text-anchor="middle" x="525.38" y="-426.45" font-family="Arial" font-size="14.00" fill="#cfffac">src/components/layout/Footer/Footer.tsx</text>
</g>
<!-- src/components/layout/Footer/index.ts -->
<g id="node15" class="node">
<title>src/components/layout/Footer/index.ts</title>
<path fill="none" stroke="#c6c5fe" d="M271.33,-443.75C271.33,-443.75 42.42,-443.75 42.42,-443.75 38.46,-443.75 34.5,-439.79 34.5,-435.83 34.5,-435.83 34.5,-427.92 34.5,-427.92 34.5,-423.96 38.46,-420 42.42,-420 42.42,-420 271.33,-420 271.33,-420 275.29,-420 279.25,-423.96 279.25,-427.92 279.25,-427.92 279.25,-435.83 279.25,-435.83 279.25,-439.79 275.29,-443.75 271.33,-443.75"/>
<text text-anchor="middle" x="156.88" y="-426.45" font-family="Arial" font-size="14.00" fill="#c6c5fe">src/components/layout/Footer/index.ts</text>
</g>
<!-- src/components/layout/Footer/index.ts&#45;&gt;src/components/layout/Footer/Footer.tsx -->
<g id="edge4" class="edge">
<title>src/components/layout/Footer/index.ts&#45;&gt;src/components/layout/Footer/Footer.tsx</title>
<path fill="none" stroke="#757575" d="M279.66,-431.88C313.49,-431.88 350.49,-431.88 385.23,-431.88"/>
<polygon fill="#757575" stroke="#757575" points="384.91,-435.38 394.91,-431.88 384.91,-428.38 384.91,-435.38"/>
</g>
<!-- src/components/layout/Header/Header.tsx -->
<g id="node16" class="node">
<title>src/components/layout/Header/Header.tsx</title>
<path fill="none" stroke="#cfffac" d="M651.46,-485.75C651.46,-485.75 399.29,-485.75 399.29,-485.75 395.33,-485.75 391.38,-481.79 391.38,-477.83 391.38,-477.83 391.38,-469.92 391.38,-469.92 391.38,-465.96 395.33,-462 399.29,-462 399.29,-462 651.46,-462 651.46,-462 655.42,-462 659.38,-465.96 659.38,-469.92 659.38,-469.92 659.38,-477.83 659.38,-477.83 659.38,-481.79 655.42,-485.75 651.46,-485.75"/>
<text text-anchor="middle" x="525.38" y="-468.45" font-family="Arial" font-size="14.00" fill="#cfffac">src/components/layout/Header/Header.tsx</text>
</g>
<!-- src/components/layout/Header/index.ts -->
<g id="node17" class="node">
<title>src/components/layout/Header/index.ts</title>
<path fill="none" stroke="#c6c5fe" d="M273.96,-485.75C273.96,-485.75 39.79,-485.75 39.79,-485.75 35.83,-485.75 31.88,-481.79 31.88,-477.83 31.88,-477.83 31.88,-469.92 31.88,-469.92 31.88,-465.96 35.83,-462 39.79,-462 39.79,-462 273.96,-462 273.96,-462 277.92,-462 281.88,-465.96 281.88,-469.92 281.88,-469.92 281.88,-477.83 281.88,-477.83 281.88,-481.79 277.92,-485.75 273.96,-485.75"/>
<text text-anchor="middle" x="156.88" y="-468.45" font-family="Arial" font-size="14.00" fill="#c6c5fe">src/components/layout/Header/index.ts</text>
</g>
<!-- src/components/layout/Header/index.ts&#45;&gt;src/components/layout/Header/Header.tsx -->
<g id="edge5" class="edge">
<title>src/components/layout/Header/index.ts&#45;&gt;src/components/layout/Header/Header.tsx</title>
<path fill="none" stroke="#757575" d="M282.21,-473.88C313.59,-473.88 347.56,-473.88 379.84,-473.88"/>
<polygon fill="#757575" stroke="#757575" points="379.67,-477.38 389.67,-473.88 379.67,-470.38 379.67,-477.38"/>
</g>
<!-- src/components/layout/Main/Main.tsx -->
<g id="node18" class="node">
<title>src/components/layout/Main/Main.tsx</title>
<path fill="none" stroke="#cfffac" d="M637.58,-527.75C637.58,-527.75 413.17,-527.75 413.17,-527.75 409.21,-527.75 405.25,-523.79 405.25,-519.83 405.25,-519.83 405.25,-511.92 405.25,-511.92 405.25,-507.96 409.21,-504 413.17,-504 413.17,-504 637.58,-504 637.58,-504 641.54,-504 645.5,-507.96 645.5,-511.92 645.5,-511.92 645.5,-519.83 645.5,-519.83 645.5,-523.79 641.54,-527.75 637.58,-527.75"/>
<text text-anchor="middle" x="525.38" y="-510.45" font-family="Arial" font-size="14.00" fill="#cfffac">src/components/layout/Main/Main.tsx</text>
</g>
<!-- src/components/layout/Main/index.ts -->
<g id="node19" class="node">
<title>src/components/layout/Main/index.ts</title>
<path fill="none" stroke="#c6c5fe" d="M266.83,-527.75C266.83,-527.75 46.92,-527.75 46.92,-527.75 42.96,-527.75 39,-523.79 39,-519.83 39,-519.83 39,-511.92 39,-511.92 39,-507.96 42.96,-504 46.92,-504 46.92,-504 266.83,-504 266.83,-504 270.79,-504 274.75,-507.96 274.75,-511.92 274.75,-511.92 274.75,-519.83 274.75,-519.83 274.75,-523.79 270.79,-527.75 266.83,-527.75"/>
<text text-anchor="middle" x="156.88" y="-510.45" font-family="Arial" font-size="14.00" fill="#c6c5fe">src/components/layout/Main/index.ts</text>
</g>
<!-- src/components/layout/Main/index.ts&#45;&gt;src/components/layout/Main/Main.tsx -->
<g id="edge6" class="edge">
<title>src/components/layout/Main/index.ts&#45;&gt;src/components/layout/Main/Main.tsx</title>
<path fill="none" stroke="#757575" d="M275.1,-515.88C312.84,-515.88 354.9,-515.88 393.55,-515.88"/>
<polygon fill="#757575" stroke="#757575" points="393.38,-519.38 403.38,-515.88 393.38,-512.38 393.38,-519.38"/>
</g>
<!-- src/components/layout/Section/Section.stories.tsx -->
<g id="node20" class="node">
<title>src/components/layout/Section/Section.stories.tsx</title>
<path fill="none" stroke="#c6c5fe" d="M305.83,-611.75C305.83,-611.75 7.92,-611.75 7.92,-611.75 3.96,-611.75 0,-607.79 0,-603.83 0,-603.83 0,-595.92 0,-595.92 0,-591.96 3.96,-588 7.92,-588 7.92,-588 305.83,-588 305.83,-588 309.79,-588 313.75,-591.96 313.75,-595.92 313.75,-595.92 313.75,-603.83 313.75,-603.83 313.75,-607.79 309.79,-611.75 305.83,-611.75"/>
<text text-anchor="middle" x="156.88" y="-594.45" font-family="Arial" font-size="14.00" fill="#c6c5fe">src/components/layout/Section/Section.stories.tsx</text>
</g>
<!-- src/components/layout/Section/Section.tsx -->
<g id="node21" class="node">
<title>src/components/layout/Section/Section.tsx</title>
<path fill="none" stroke="#cfffac" d="M652.58,-590.75C652.58,-590.75 398.17,-590.75 398.17,-590.75 394.21,-590.75 390.25,-586.79 390.25,-582.83 390.25,-582.83 390.25,-574.92 390.25,-574.92 390.25,-570.96 394.21,-567 398.17,-567 398.17,-567 652.58,-567 652.58,-567 656.54,-567 660.5,-570.96 660.5,-574.92 660.5,-574.92 660.5,-582.83 660.5,-582.83 660.5,-586.79 656.54,-590.75 652.58,-590.75"/>
<text text-anchor="middle" x="525.38" y="-573.45" font-family="Arial" font-size="14.00" fill="#cfffac">src/components/layout/Section/Section.tsx</text>
</g>
<!-- src/components/layout/Section/Section.stories.tsx&#45;&gt;src/components/layout/Section/Section.tsx -->
<g id="edge7" class="edge">
<title>src/components/layout/Section/Section.stories.tsx&#45;&gt;src/components/layout/Section/Section.tsx</title>
<path fill="none" stroke="#757575" d="M314.1,-590.92C335.47,-589.7 357.35,-588.45 378.52,-587.23"/>
<polygon fill="#757575" stroke="#757575" points="378.57,-590.74 388.36,-586.67 378.17,-583.75 378.57,-590.74"/>
</g>
<!-- src/components/layout/Section/index.ts -->
<g id="node22" class="node">
<title>src/components/layout/Section/index.ts</title>
<path fill="none" stroke="#c6c5fe" d="M274.33,-569.75C274.33,-569.75 39.42,-569.75 39.42,-569.75 35.46,-569.75 31.5,-565.79 31.5,-561.83 31.5,-561.83 31.5,-553.92 31.5,-553.92 31.5,-549.96 35.46,-546 39.42,-546 39.42,-546 274.33,-546 274.33,-546 278.29,-546 282.25,-549.96 282.25,-553.92 282.25,-553.92 282.25,-561.83 282.25,-561.83 282.25,-565.79 278.29,-569.75 274.33,-569.75"/>
<text text-anchor="middle" x="156.88" y="-552.45" font-family="Arial" font-size="14.00" fill="#c6c5fe">src/components/layout/Section/index.ts</text>
</g>
<!-- src/components/layout/Section/index.ts&#45;&gt;src/components/layout/Section/Section.tsx -->
<g id="edge8" class="edge">
<title>src/components/layout/Section/index.ts&#45;&gt;src/components/layout/Section/Section.tsx</title>
<path fill="none" stroke="#757575" d="M282.72,-565.03C313.62,-566.8 346.99,-568.71 378.78,-570.53"/>
<polygon fill="#757575" stroke="#757575" points="378.26,-574.01 388.44,-571.09 378.66,-567.02 378.26,-574.01"/>
</g>
<!-- src/components/ui/Button/Button.spec.tsx -->
<g id="node23" class="node">
<title>src/components/ui/Button/Button.spec.tsx</title>
<path fill="none" stroke="#c6c5fe" d="M281.46,-737.75C281.46,-737.75 32.29,-737.75 32.29,-737.75 28.33,-737.75 24.38,-733.79 24.38,-729.83 24.38,-729.83 24.38,-721.92 24.38,-721.92 24.38,-717.96 28.33,-714 32.29,-714 32.29,-714 281.46,-714 281.46,-714 285.42,-714 289.38,-717.96 289.38,-721.92 289.38,-721.92 289.38,-729.83 289.38,-729.83 289.38,-733.79 285.42,-737.75 281.46,-737.75"/>
<text text-anchor="middle" x="156.88" y="-720.45" font-family="Arial" font-size="14.00" fill="#c6c5fe">src/components/ui/Button/Button.spec.tsx</text>
</g>
<!-- src/components/ui/Button/Button.tsx -->
<g id="node24" class="node">
<title>src/components/ui/Button/Button.tsx</title>
<path fill="none" stroke="#cfffac" d="M633.83,-695.75C633.83,-695.75 416.92,-695.75 416.92,-695.75 412.96,-695.75 409,-691.79 409,-687.83 409,-687.83 409,-679.92 409,-679.92 409,-675.96 412.96,-672 416.92,-672 416.92,-672 633.83,-672 633.83,-672 637.79,-672 641.75,-675.96 641.75,-679.92 641.75,-679.92 641.75,-687.83 641.75,-687.83 641.75,-691.79 637.79,-695.75 633.83,-695.75"/>
<text text-anchor="middle" x="525.38" y="-678.45" font-family="Arial" font-size="14.00" fill="#cfffac">src/components/ui/Button/Button.tsx</text>
</g>
<!-- src/components/ui/Button/Button.spec.tsx&#45;&gt;src/components/ui/Button/Button.tsx -->
<g id="edge9" class="edge">
<title>src/components/ui/Button/Button.spec.tsx&#45;&gt;src/components/ui/Button/Button.tsx</title>
<path fill="none" stroke="#757575" d="M265.85,-713.5C309.65,-708.48 360.39,-702.67 405.26,-697.53"/>
<polygon fill="#757575" stroke="#757575" points="405.49,-701.02 415.03,-696.41 404.7,-694.07 405.49,-701.02"/>
</g>
<!-- src/components/ui/Button/Button.stories.tsx -->
<g id="node25" class="node">
<title>src/components/ui/Button/Button.stories.tsx</title>
<path fill="none" stroke="#c6c5fe" d="M287.08,-695.75C287.08,-695.75 26.67,-695.75 26.67,-695.75 22.71,-695.75 18.75,-691.79 18.75,-687.83 18.75,-687.83 18.75,-679.92 18.75,-679.92 18.75,-675.96 22.71,-672 26.67,-672 26.67,-672 287.08,-672 287.08,-672 291.04,-672 295,-675.96 295,-679.92 295,-679.92 295,-687.83 295,-687.83 295,-691.79 291.04,-695.75 287.08,-695.75"/>
<text text-anchor="middle" x="156.88" y="-678.45" font-family="Arial" font-size="14.00" fill="#c6c5fe">src/components/ui/Button/Button.stories.tsx</text>
</g>
<!-- src/components/ui/Button/Button.stories.tsx&#45;&gt;src/components/ui/Button/Button.tsx -->
<g id="edge10" class="edge">
<title>src/components/ui/Button/Button.stories.tsx&#45;&gt;src/components/ui/Button/Button.tsx</title>
<path fill="none" stroke="#757575" d="M295.39,-683.88C328.73,-683.88 364.23,-683.88 397.07,-683.88"/>
<polygon fill="#757575" stroke="#757575" points="397.06,-687.38 407.06,-683.88 397.06,-680.38 397.06,-687.38"/>
</g>
<!-- src/components/ui/Button/index.ts -->
<g id="node26" class="node">
<title>src/components/ui/Button/index.ts</title>
<path fill="none" stroke="#c6c5fe" d="M258.58,-653.75C258.58,-653.75 55.17,-653.75 55.17,-653.75 51.21,-653.75 47.25,-649.79 47.25,-645.83 47.25,-645.83 47.25,-637.92 47.25,-637.92 47.25,-633.96 51.21,-630 55.17,-630 55.17,-630 258.58,-630 258.58,-630 262.54,-630 266.5,-633.96 266.5,-637.92 266.5,-637.92 266.5,-645.83 266.5,-645.83 266.5,-649.79 262.54,-653.75 258.58,-653.75"/>
<text text-anchor="middle" x="156.88" y="-636.45" font-family="Arial" font-size="14.00" fill="#c6c5fe">src/components/ui/Button/index.ts</text>
</g>
<!-- src/components/ui/Button/index.ts&#45;&gt;src/components/ui/Button/Button.tsx -->
<g id="edge11" class="edge">
<title>src/components/ui/Button/index.ts&#45;&gt;src/components/ui/Button/Button.tsx</title>
<path fill="none" stroke="#757575" d="M265.85,-654.25C309.65,-659.27 360.39,-665.08 405.26,-670.22"/>
<polygon fill="#757575" stroke="#757575" points="404.7,-673.68 415.03,-671.34 405.49,-666.73 404.7,-673.68"/>
</g>
<!-- src/components/ui/Image/Image.tsx -->
<g id="node27" class="node">
<title>src/components/ui/Image/Image.tsx</title>
<path fill="none" stroke="#cfffac" d="M633.08,-779.75C633.08,-779.75 417.67,-779.75 417.67,-779.75 413.71,-779.75 409.75,-775.79 409.75,-771.83 409.75,-771.83 409.75,-763.92 409.75,-763.92 409.75,-759.96 413.71,-756 417.67,-756 417.67,-756 633.08,-756 633.08,-756 637.04,-756 641,-759.96 641,-763.92 641,-763.92 641,-771.83 641,-771.83 641,-775.79 637.04,-779.75 633.08,-779.75"/>
<text text-anchor="middle" x="525.38" y="-762.45" font-family="Arial" font-size="14.00" fill="#cfffac">src/components/ui/Image/Image.tsx</text>
</g>
<!-- src/components/ui/Image/index.ts -->
<g id="node28" class="node">
<title>src/components/ui/Image/index.ts</title>
<path fill="none" stroke="#c6c5fe" d="M258.21,-779.75C258.21,-779.75 55.54,-779.75 55.54,-779.75 51.58,-779.75 47.62,-775.79 47.62,-771.83 47.62,-771.83 47.62,-763.92 47.62,-763.92 47.62,-759.96 51.58,-756 55.54,-756 55.54,-756 258.21,-756 258.21,-756 262.17,-756 266.12,-759.96 266.12,-763.92 266.12,-763.92 266.12,-771.83 266.12,-771.83 266.12,-775.79 262.17,-779.75 258.21,-779.75"/>
<text text-anchor="middle" x="156.88" y="-762.45" font-family="Arial" font-size="14.00" fill="#c6c5fe">src/components/ui/Image/index.ts</text>
</g>
<!-- src/components/ui/Image/index.ts&#45;&gt;src/components/ui/Image/Image.tsx -->
<g id="edge12" class="edge">
<title>src/components/ui/Image/index.ts&#45;&gt;src/components/ui/Image/Image.tsx</title>
<path fill="none" stroke="#757575" d="M266.35,-767.88C307.72,-767.88 355.22,-767.88 398.11,-767.88"/>
<polygon fill="#757575" stroke="#757575" points="397.97,-771.38 407.97,-767.88 397.97,-764.38 397.97,-771.38"/>
</g>
<!-- src/components/ui/Link/Link.tsx -->
<g id="node29" class="node">
<title>src/components/ui/Link/Link.tsx</title>
<path fill="none" stroke="#cfffac" d="M619.58,-821.75C619.58,-821.75 431.17,-821.75 431.17,-821.75 427.21,-821.75 423.25,-817.79 423.25,-813.83 423.25,-813.83 423.25,-805.92 423.25,-805.92 423.25,-801.96 427.21,-798 431.17,-798 431.17,-798 619.58,-798 619.58,-798 623.54,-798 627.5,-801.96 627.5,-805.92 627.5,-805.92 627.5,-813.83 627.5,-813.83 627.5,-817.79 623.54,-821.75 619.58,-821.75"/>
<text text-anchor="middle" x="525.38" y="-804.45" font-family="Arial" font-size="14.00" fill="#cfffac">src/components/ui/Link/Link.tsx</text>
</g>
<!-- src/components/ui/Link/index.ts -->
<g id="node30" class="node">
<title>src/components/ui/Link/index.ts</title>
<path fill="none" stroke="#c6c5fe" d="M251.46,-821.75C251.46,-821.75 62.29,-821.75 62.29,-821.75 58.33,-821.75 54.38,-817.79 54.38,-813.83 54.38,-813.83 54.38,-805.92 54.38,-805.92 54.38,-801.96 58.33,-798 62.29,-798 62.29,-798 251.46,-798 251.46,-798 255.42,-798 259.38,-801.96 259.38,-805.92 259.38,-805.92 259.38,-813.83 259.38,-813.83 259.38,-817.79 255.42,-821.75 251.46,-821.75"/>
<text text-anchor="middle" x="156.88" y="-804.45" font-family="Arial" font-size="14.00" fill="#c6c5fe">src/components/ui/Link/index.ts</text>
</g>
<!-- src/components/ui/Link/index.ts&#45;&gt;src/components/ui/Link/Link.tsx -->
<g id="edge13" class="edge">
<title>src/components/ui/Link/index.ts&#45;&gt;src/components/ui/Link/Link.tsx</title>
<path fill="none" stroke="#757575" d="M259.48,-809.88C306.65,-809.88 362.88,-809.88 411.38,-809.88"/>
<polygon fill="#757575" stroke="#757575" points="411.38,-813.38 421.38,-809.88 411.38,-806.38 411.38,-813.38"/>
</g>
<!-- src/config/app.config.ts -->
<g id="node31" class="node">
<title>src/config/app.config.ts</title>
<path fill="none" stroke="#cfffac" d="M594.46,-905.75C594.46,-905.75 456.29,-905.75 456.29,-905.75 452.33,-905.75 448.38,-901.79 448.38,-897.83 448.38,-897.83 448.38,-889.92 448.38,-889.92 448.38,-885.96 452.33,-882 456.29,-882 456.29,-882 594.46,-882 594.46,-882 598.42,-882 602.38,-885.96 602.38,-889.92 602.38,-889.92 602.38,-897.83 602.38,-897.83 602.38,-901.79 598.42,-905.75 594.46,-905.75"/>
<text text-anchor="middle" x="525.38" y="-888.45" font-family="Arial" font-size="14.00" fill="#cfffac">src/config/app.config.ts</text>
</g>
<!-- src/config/index.ts -->
<g id="node32" class="node">
<title>src/config/index.ts</title>
<path fill="none" stroke="#c6c5fe" d="M210.96,-863.75C210.96,-863.75 102.79,-863.75 102.79,-863.75 98.83,-863.75 94.88,-859.79 94.88,-855.83 94.88,-855.83 94.88,-847.92 94.88,-847.92 94.88,-843.96 98.83,-840 102.79,-840 102.79,-840 210.96,-840 210.96,-840 214.92,-840 218.88,-843.96 218.88,-847.92 218.88,-847.92 218.88,-855.83 218.88,-855.83 218.88,-859.79 214.92,-863.75 210.96,-863.75"/>
<text text-anchor="middle" x="156.88" y="-846.45" font-family="Arial" font-size="14.00" fill="#c6c5fe">src/config/index.ts</text>
</g>
<!-- src/config/index.ts&#45;&gt;src/config/app.config.ts -->
<g id="edge14" class="edge">
<title>src/config/index.ts&#45;&gt;src/config/app.config.ts</title>
<path fill="none" stroke="#757575" d="M219.22,-858.9C278.74,-865.73 369.67,-876.15 436.8,-883.84"/>
<polygon fill="#757575" stroke="#757575" points="436.36,-887.31 446.69,-884.97 437.16,-880.36 436.36,-887.31"/>
</g>
<!-- src/config/theme.config.ts -->
<g id="node33" class="node">
<title>src/config/theme.config.ts</title>
<path fill="none" stroke="#c6c5fe" d="M602.33,-863.75C602.33,-863.75 448.42,-863.75 448.42,-863.75 444.46,-863.75 440.5,-859.79 440.5,-855.83 440.5,-855.83 440.5,-847.92 440.5,-847.92 440.5,-843.96 444.46,-840 448.42,-840 448.42,-840 602.33,-840 602.33,-840 606.29,-840 610.25,-843.96 610.25,-847.92 610.25,-847.92 610.25,-855.83 610.25,-855.83 610.25,-859.79 606.29,-863.75 602.33,-863.75"/>
<text text-anchor="middle" x="525.38" y="-846.45" font-family="Arial" font-size="14.00" fill="#c6c5fe">src/config/theme.config.ts</text>
</g>
<!-- src/config/index.ts&#45;&gt;src/config/theme.config.ts -->
<g id="edge15" class="edge">
<title>src/config/index.ts&#45;&gt;src/config/theme.config.ts</title>
<path fill="none" stroke="#757575" d="M219.22,-851.88C276.43,-851.88 362.66,-851.88 428.87,-851.88"/>
<polygon fill="#757575" stroke="#757575" points="428.64,-855.38 438.64,-851.88 428.64,-848.38 428.64,-855.38"/>
</g>
<!-- src/utils/theme.utils.ts -->
<g id="node34" class="node">
<title>src/utils/theme.utils.ts</title>
<path fill="none" stroke="#cfffac" d="M874.83,-863.75C874.83,-863.75 744.92,-863.75 744.92,-863.75 740.96,-863.75 737,-859.79 737,-855.83 737,-855.83 737,-847.92 737,-847.92 737,-843.96 740.96,-840 744.92,-840 744.92,-840 874.83,-840 874.83,-840 878.79,-840 882.75,-843.96 882.75,-847.92 882.75,-847.92 882.75,-855.83 882.75,-855.83 882.75,-859.79 878.79,-863.75 874.83,-863.75"/>
<text text-anchor="middle" x="809.88" y="-846.45" font-family="Arial" font-size="14.00" fill="#cfffac">src/utils/theme.utils.ts</text>
</g>
<!-- src/config/theme.config.ts&#45;&gt;src/utils/theme.utils.ts -->
<g id="edge16" class="edge">
<title>src/config/theme.config.ts&#45;&gt;src/utils/theme.utils.ts</title>
<path fill="none" stroke="#757575" d="M610.37,-851.88C646.78,-851.88 689.29,-851.88 725.62,-851.88"/>
<polygon fill="#757575" stroke="#757575" points="725.16,-855.38 735.16,-851.88 725.16,-848.38 725.16,-855.38"/>
</g>
<!-- src/hooks/use&#45;debounce.ts -->
<g id="node35" class="node">
<title>src/hooks/use&#45;debounce.ts</title>
<path fill="none" stroke="#cfffac" d="M237.58,-905.75C237.58,-905.75 76.17,-905.75 76.17,-905.75 72.21,-905.75 68.25,-901.79 68.25,-897.83 68.25,-897.83 68.25,-889.92 68.25,-889.92 68.25,-885.96 72.21,-882 76.17,-882 76.17,-882 237.58,-882 237.58,-882 241.54,-882 245.5,-885.96 245.5,-889.92 245.5,-889.92 245.5,-897.83 245.5,-897.83 245.5,-901.79 241.54,-905.75 237.58,-905.75"/>
<text text-anchor="middle" x="156.88" y="-888.45" font-family="Arial" font-size="14.00" fill="#cfffac">src/hooks/use&#45;debounce.ts</text>
</g>
<!-- src/libs/env.ts -->
<g id="node36" class="node">
<title>src/libs/env.ts</title>
<path fill="none" stroke="#cfffac" d="M197.46,-947.75C197.46,-947.75 116.29,-947.75 116.29,-947.75 112.33,-947.75 108.38,-943.79 108.38,-939.83 108.38,-939.83 108.38,-931.92 108.38,-931.92 108.38,-927.96 112.33,-924 116.29,-924 116.29,-924 197.46,-924 197.46,-924 201.42,-924 205.38,-927.96 205.38,-931.92 205.38,-931.92 205.38,-939.83 205.38,-939.83 205.38,-943.79 201.42,-947.75 197.46,-947.75"/>
<text text-anchor="middle" x="156.88" y="-930.45" font-family="Arial" font-size="14.00" fill="#cfffac">src/libs/env.ts</text>
</g>
<!-- src/styles/tailwind.css -->
<g id="node37" class="node">
<title>src/styles/tailwind.css</title>
<path fill="none" stroke="#c6c5fe" d="M221.46,-989.75C221.46,-989.75 92.29,-989.75 92.29,-989.75 88.33,-989.75 84.38,-985.79 84.38,-981.83 84.38,-981.83 84.38,-973.92 84.38,-973.92 84.38,-969.96 88.33,-966 92.29,-966 92.29,-966 221.46,-966 221.46,-966 225.42,-966 229.38,-969.96 229.38,-973.92 229.38,-973.92 229.38,-981.83 229.38,-981.83 229.38,-985.79 225.42,-989.75 221.46,-989.75"/>
<text text-anchor="middle" x="156.88" y="-972.45" font-family="Arial" font-size="14.00" fill="#c6c5fe">src/styles/tailwind.css</text>
</g>
<!-- src/styles/typography.css -->
<g id="node38" class="node">
<title>src/styles/typography.css</title>
<path fill="none" stroke="#cfffac" d="M600.46,-989.75C600.46,-989.75 450.29,-989.75 450.29,-989.75 446.33,-989.75 442.38,-985.79 442.38,-981.83 442.38,-981.83 442.38,-973.92 442.38,-973.92 442.38,-969.96 446.33,-966 450.29,-966 450.29,-966 600.46,-966 600.46,-966 604.42,-966 608.38,-969.96 608.38,-973.92 608.38,-973.92 608.38,-981.83 608.38,-981.83 608.38,-985.79 604.42,-989.75 600.46,-989.75"/>
<text text-anchor="middle" x="525.38" y="-972.45" font-family="Arial" font-size="14.00" fill="#cfffac">src/styles/typography.css</text>
</g>
<!-- src/styles/tailwind.css&#45;&gt;src/styles/typography.css -->
<g id="edge17" class="edge">
<title>src/styles/tailwind.css&#45;&gt;src/styles/typography.css</title>
<path fill="none" stroke="#757575" d="M229.85,-977.88C287.25,-977.88 368.1,-977.88 430.57,-977.88"/>
<polygon fill="#757575" stroke="#757575" points="430.5,-981.38 440.5,-977.88 430.5,-974.38 430.5,-981.38"/>
</g>
<!-- src/utils/index.ts -->
<g id="node39" class="node">
<title>src/utils/index.ts</title>
<path fill="none" stroke="#cfffac" d="M204.96,-1031.75C204.96,-1031.75 108.79,-1031.75 108.79,-1031.75 104.83,-1031.75 100.88,-1027.79 100.88,-1023.83 100.88,-1023.83 100.88,-1015.92 100.88,-1015.92 100.88,-1011.96 104.83,-1008 108.79,-1008 108.79,-1008 204.96,-1008 204.96,-1008 208.92,-1008 212.88,-1011.96 212.88,-1015.92 212.88,-1015.92 212.88,-1023.83 212.88,-1023.83 212.88,-1027.79 208.92,-1031.75 204.96,-1031.75"/>
<text text-anchor="middle" x="156.88" y="-1014.45" font-family="Arial" font-size="14.00" fill="#cfffac">src/utils/index.ts</text>
</g>
</g>
</svg>
