<?xml version="1.0" standalone="no"?>
<!DOCTYPE svg PUBLIC "-//W3C//DTD SVG 20010904//EN"
 "http://www.w3.org/TR/2001/REC-SVG-20010904/DTD/svg10.dtd">
<svg version="1.0" xmlns="http://www.w3.org/2000/svg"
 width="1000.000000pt" height="1000.000000pt" viewBox="0 0 1000.000000 1000.000000"
 preserveAspectRatio="xMidYMid meet">
<metadata>
Created by potrace 1.14, written by Peter Selinger 2001-2017
</metadata>
<g transform="translate(0.000000,1000.000000) scale(0.100000,-0.100000)"
fill="#000000" stroke="none">
<path d="M4992 9978 c-63 -9 -85 -20 -312 -153 -96 -57 -195 -114 -220 -128
-25 -14 -117 -67 -205 -119 -88 -52 -167 -97 -175 -101 -8 -4 -31 -17 -50 -29
-19 -12 -53 -31 -75 -43 -22 -12 -188 -109 -370 -215 -181 -106 -350 -204
-375 -218 -25 -14 -124 -71 -220 -127 -96 -56 -249 -145 -340 -197 -91 -53
-345 -200 -565 -328 -220 -128 -416 -241 -435 -252 -48 -27 -393 -227 -510
-295 -251 -146 -317 -207 -394 -358 -77 -152 -70 73 -72 -2427 -2 -1911 0
-2246 12 -2300 48 -212 161 -360 364 -476 19 -10 76 -43 125 -72 50 -29 106
-61 125 -72 19 -11 64 -37 100 -58 36 -21 81 -47 100 -58 19 -11 307 -178 640
-372 333 -194 621 -362 640 -372 38 -22 162 -95 195 -115 11 -7 27 -15 35 -19
8 -4 49 -27 90 -51 41 -25 82 -49 90 -53 8 -5 71 -42 140 -82 69 -40 134 -78
146 -84 11 -6 88 -50 170 -99 82 -48 192 -112 244 -142 190 -111 236 -138 307
-180 40 -24 75 -43 77 -43 3 0 33 -17 68 -39 193 -117 458 -265 458 -255 0 4
6 2 13 -3 20 -16 137 -37 212 -37 125 -1 214 18 310 67 33 16 361 206 495 286
19 11 49 28 65 37 17 9 197 114 400 232 204 118 384 223 400 232 17 10 111 64
210 122 99 58 320 186 490 285 171 99 366 213 435 253 68 40 138 81 155 90 16
10 86 50 155 90 68 40 138 81 155 90 16 10 113 66 215 125 102 60 253 147 335
195 236 136 261 152 318 200 71 60 121 124 167 218 73 146 68 21 69 1983 1
1297 -2 1775 -10 1800 -7 19 -25 49 -42 66 -80 85 -218 66 -277 -39 l-24 -43
-1 -1482 0 -1482 -22 -22 c-29 -30 -81 -28 -108 3 -25 29 -18 21 -332 424
-142 182 -270 346 -285 365 -14 19 -56 72 -93 119 -36 47 -76 99 -89 115 -53
67 -428 548 -511 655 -49 63 -94 120 -100 126 -5 7 -19 24 -30 40 -11 15 -29
39 -41 53 -11 14 -72 91 -134 171 -62 80 -123 159 -136 175 -13 17 -125 161
-249 320 -125 160 -260 333 -301 385 -41 52 -137 176 -214 275 -77 99 -147
188 -156 198 -18 22 -12 31 19 33 40 2 201 16 237 19 19 2 67 6 105 9 39 4 97
9 130 12 33 2 83 7 110 9 28 2 82 6 120 10 106 10 153 14 235 20 41 3 91 7
110 10 19 2 73 7 120 11 47 3 103 7 125 9 114 11 156 15 225 20 41 3 95 8 120
10 45 5 124 12 222 20 29 2 82 7 118 10 36 3 90 8 120 10 30 2 87 7 125 10 39
4 90 8 115 10 25 2 74 7 110 10 36 4 90 8 120 10 52 4 99 8 230 20 136 13 179
28 245 87 125 109 121 328 -8 437 -26 22 -111 79 -340 226 -59 39 -162 106
-230 150 -68 44 -154 100 -193 125 -38 24 -132 85 -209 135 -77 50 -176 114
-220 143 -44 28 -246 159 -450 291 -203 132 -487 315 -630 407 -330 213 -490
318 -635 412 -132 87 -191 112 -258 112 -213 0 -356 -209 -277 -405 14 -32 41
-76 62 -96 21 -21 145 -106 275 -191 1726 -1113 1887 -1219 1893 -1249 12 -55
-21 -74 -142 -84 -43 -4 -94 -8 -113 -10 -19 -2 -73 -6 -120 -9 -47 -4 -96 -8
-110 -11 -14 -2 -65 -7 -115 -10 -49 -3 -106 -8 -125 -10 -19 -2 -71 -7 -115
-10 -44 -3 -96 -8 -115 -10 -19 -2 -75 -6 -125 -10 -49 -3 -101 -8 -115 -10
-14 -2 -65 -6 -115 -10 -49 -3 -101 -8 -115 -10 -14 -2 -65 -6 -115 -9 -49 -4
-106 -9 -125 -11 -19 -3 -66 -7 -105 -10 -38 -3 -94 -7 -122 -10 -77 -7 -148
-14 -233 -20 l-76 -7 -22 94 c-21 90 -52 223 -161 693 -28 121 -80 348 -117
505 -36 157 -68 296 -70 310 -3 14 -10 43 -16 65 -5 22 -12 50 -14 63 -3 13
-18 81 -35 150 -17 70 -33 137 -35 150 -23 119 -99 425 -113 457 -49 112 -183
182 -309 163z m-227 -588 c17 -11 36 -30 43 -44 8 -18 61 -237 97 -406 2 -8
15 -63 29 -123 14 -59 28 -118 30 -130 2 -12 29 -130 60 -261 31 -132 58 -249
60 -260 3 -12 30 -131 61 -266 32 -135 73 -312 92 -395 19 -82 36 -157 38
-165 21 -88 25 -106 25 -113 0 -7 -130 -2 -200 8 -14 2 -70 7 -125 10 -55 4
-113 9 -130 11 -16 2 -75 6 -130 9 -55 4 -111 8 -125 10 -14 2 -63 6 -110 10
-47 3 -103 8 -125 10 -22 2 -74 7 -115 10 -98 7 -206 16 -250 20 -19 2 -75 6
-125 10 -49 3 -112 8 -140 11 -27 2 -77 6 -110 9 -54 3 -98 7 -250 20 -27 2
-88 7 -135 11 -47 3 -101 8 -120 9 -19 2 -73 7 -120 10 -47 3 -103 8 -125 10
-22 2 -80 7 -130 10 -49 4 -106 8 -125 10 -19 2 -71 6 -115 10 -44 3 -105 8
-135 10 -132 12 -159 14 -235 20 -44 3 -100 8 -125 10 -25 2 -83 7 -130 11
-47 4 -94 8 -105 9 -11 1 -35 3 -53 4 -46 2 -82 40 -82 87 0 42 30 75 101 112
24 13 60 32 79 44 64 37 774 450 810 470 19 11 91 53 160 93 287 168 618 360
660 383 25 14 57 33 72 43 14 11 28 19 31 19 3 0 39 20 80 44 42 25 133 78
204 119 70 41 241 140 380 220 139 81 267 155 285 165 60 35 143 82 158 92 26
15 81 11 115 -10z m-3125 -2234 c30 -3 91 -8 135 -11 44 -3 100 -8 125 -10 25
-2 81 -7 125 -10 44 -4 98 -8 120 -10 22 -2 76 -6 120 -10 44 -3 96 -7 115
-10 19 -2 80 -7 135 -11 55 -3 114 -8 130 -9 69 -6 194 -16 250 -21 33 -2 85
-6 115 -9 30 -2 89 -7 130 -10 41 -3 95 -8 120 -10 63 -6 163 -14 251 -20 41
-3 92 -7 114 -9 22 -2 81 -7 130 -11 50 -3 108 -8 130 -10 22 -3 76 -7 120
-10 44 -4 96 -8 115 -10 19 -2 76 -6 125 -10 50 -4 106 -8 125 -9 20 -2 76 -6
125 -10 50 -4 106 -9 125 -11 19 -2 71 -7 115 -10 108 -8 201 -15 251 -20 36
-3 129 -11 252 -20 18 -1 34 -4 36 -6 3 -3 -694 -1817 -724 -1884 -5 -11 -37
-92 -71 -180 -33 -88 -89 -232 -124 -320 -34 -88 -151 -389 -259 -670 -109
-280 -213 -548 -231 -595 -18 -47 -97 -248 -174 -447 -77 -199 -147 -373 -156
-387 -9 -13 -34 -31 -56 -40 -62 -25 -129 -6 -163 47 -13 20 -145 395 -166
472 -18 65 -1240 3711 -1252 3733 -26 49 -81 102 -133 128 -92 45 -210 34
-293 -26 -82 -59 -125 -144 -125 -245 1 -49 57 -220 1334 -4040 105 -313 191
-587 192 -607 2 -67 -65 -133 -133 -131 -39 1 -69 16 -339 173 -46 27 -145 84
-166 96 -44 24 -349 203 -508 296 -92 54 -169 98 -171 98 -2 0 -43 24 -92 53
-49 30 -109 65 -134 79 -107 60 -176 103 -203 127 -33 30 -73 94 -88 143 -18
57 -8 4014 11 4093 25 108 111 225 209 283 93 55 192 67 381 48z m4383 -1098
c151 -194 328 -421 393 -505 66 -83 175 -224 244 -313 69 -89 137 -176 151
-194 14 -17 189 -240 388 -496 199 -256 369 -475 379 -487 44 -56 456 -583
695 -891 62 -79 151 -193 199 -254 94 -120 104 -147 78 -206 -20 -45 -47 -64
-115 -80 -199 -47 -416 -100 -568 -137 -98 -25 -188 -47 -200 -49 -12 -2 -114
-27 -227 -55 -312 -76 -691 -169 -827 -201 -67 -17 -251 -62 -410 -101 -158
-39 -299 -73 -313 -75 -14 -3 -38 -9 -55 -14 -16 -5 -41 -11 -55 -14 -34 -6
-396 -94 -440 -106 -19 -6 -102 -26 -185 -46 -82 -19 -213 -51 -290 -70 -77
-19 -149 -37 -160 -39 -86 -18 -233 -58 -255 -70 -45 -23 -82 -89 -82 -149 -1
-88 53 -156 138 -174 50 -11 60 -9 359 67 110 27 215 53 234 56 19 3 37 8 41
10 3 2 17 6 31 9 13 3 80 19 149 36 69 17 132 32 140 34 8 2 56 14 105 26 50
12 97 23 105 25 23 6 453 111 675 166 110 27 209 51 220 53 11 2 110 27 220
54 110 28 297 73 415 102 118 28 222 54 230 56 54 13 108 26 125 30 11 2 108
26 215 53 121 30 202 46 215 41 11 -4 27 -19 35 -33 31 -56 -1 -83 -285 -242
-55 -31 -143 -82 -185 -107 -19 -12 -53 -31 -75 -43 -22 -13 -92 -53 -155 -90
-63 -37 -297 -173 -520 -303 -223 -129 -441 -256 -485 -281 -44 -26 -325 -189
-625 -364 -546 -317 -601 -344 -666 -332 -10 2 -30 4 -44 4 -21 1 -137 60
-267 137 -78 46 -431 250 -460 266 -81 44 -173 110 -217 154 -125 126 -199
303 -196 469 2 123 8 151 75 324 29 75 87 226 129 336 42 110 84 215 92 234 9
18 20 45 24 60 13 42 379 984 390 1003 5 10 10 23 10 29 0 6 6 25 14 42 8 18
33 82 56 142 23 61 66 171 95 245 29 74 141 365 249 645 109 281 201 519 206
530 10 24 55 138 219 565 67 173 126 324 130 335 11 23 23 56 27 70 11 42 180
465 186 465 3 0 130 -159 281 -352z"/>
</g>
</svg>
